<svg xmlns="http://www.w3.org/2000/svg" viewBox="0 0 120 120" width="120" height="120"><title>AI đọc BCTC</title>
<defs>
<linearGradient id="bg" x1=".15" y1="0" x2=".85" y2="1"><stop offset="0" stop-color="#b69cff"/><stop offset="1" stop-color="#4a1fa8"/></linearGradient>
<radialGradient id="lt" cx=".22" cy=".08" r=".85"><stop offset="0" stop-color="#fff" stop-opacity=".5"/><stop offset=".5" stop-color="#fff" stop-opacity=".08"/><stop offset="1" stop-color="#fff" stop-opacity="0"/></radialGradient>
<radialGradient id="vg" cx=".5" cy="1.1" r=".75"><stop offset="0" stop-color="#000" stop-opacity=".22"/><stop offset="1" stop-color="#000" stop-opacity="0"/></radialGradient>
<linearGradient id="gl" x1="0" y1="0" x2="0" y2="1"><stop offset="0" stop-color="#fff"/><stop offset="1" stop-color="#fff" stop-opacity=".82"/></linearGradient>
<linearGradient id="fr" x1="0" y1="0" x2="0" y2="1"><stop offset="0" stop-color="#fff" stop-opacity=".62"/><stop offset="1" stop-color="#fff" stop-opacity=".28"/></linearGradient>
<linearGradient id="rim" x1="0" y1="0" x2="1" y2="1"><stop offset="0" stop-color="#fff" stop-opacity=".85"/><stop offset=".45" stop-color="#fff" stop-opacity=".1"/><stop offset=".7" stop-color="#fff" stop-opacity=".05"/><stop offset="1" stop-color="#fff" stop-opacity=".45"/></linearGradient>
<filter id="sh" x="-30%" y="-30%" width="160%" height="170%"><feDropShadow dx="0" dy="4" stdDeviation="4" flood-color="#4a1fa8" flood-opacity=".55"/></filter>
<filter id="gw" x="-50%" y="-50%" width="200%" height="200%"><feGaussianBlur stdDeviation="3"/></filter>
</defs>
<rect width="120" height="120" rx="27" fill="url(#bg)"/>
<rect width="120" height="120" rx="27" fill="url(#vg)"/>
<rect width="120" height="120" rx="27" fill="url(#lt)"/>
<g filter="url(#sh)"><rect x="40" y="18" width="44" height="58" rx="9" fill="url(#fr)" transform="rotate(9 62 47)"/><rect x="28" y="26" width="46" height="62" rx="9" fill="url(#gl)"/><path d="M38 42h26M38 52h26M38 62h15" stroke="#6d3fe0" stroke-opacity=".6" stroke-width="5" stroke-linecap="round"/><path d="M83 62l4.6 12.4L100 79l-12.4 4.6L83 96l-4.6-12.4L66 79l12.4-4.6z" fill="#fff"/><path d="M98 36l2.4 6.6L107 45l-6.6 2.4L98 54l-2.4-6.6L89 45l6.6-2.4z" fill="#fff" fill-opacity=".9"/></g>
<rect x="1" y="1" width="118" height="118" rx="26" fill="none" stroke="url(#rim)" stroke-width="2"/>
</svg>
