<svg xmlns="http://www.w3.org/2000/svg" viewBox="0 0 120 120" width="120" height="120"><title>Sách</title>
<defs>
<linearGradient id="bg" x1=".15" y1="0" x2=".85" y2="1"><stop offset="0" stop-color="#4ade80"/><stop offset="1" stop-color="#166534"/></linearGradient>
<radialGradient id="lt" cx=".22" cy=".08" r=".85"><stop offset="0" stop-color="#fff" stop-opacity=".5"/><stop offset=".5" stop-color="#fff" stop-opacity=".08"/><stop offset="1" stop-color="#fff" stop-opacity="0"/></radialGradient>
<radialGradient id="vg" cx=".5" cy="1.1" r=".75"><stop offset="0" stop-color="#000" stop-opacity=".22"/><stop offset="1" stop-color="#000" stop-opacity="0"/></radialGradient>
<linearGradient id="gl" x1="0" y1="0" x2="0" y2="1"><stop offset="0" stop-color="#fff"/><stop offset="1" stop-color="#fff" stop-opacity=".82"/></linearGradient>
<linearGradient id="fr" x1="0" y1="0" x2="0" y2="1"><stop offset="0" stop-color="#fff" stop-opacity=".62"/><stop offset="1" stop-color="#fff" stop-opacity=".28"/></linearGradient>
<linearGradient id="rim" x1="0" y1="0" x2="1" y2="1"><stop offset="0" stop-color="#fff" stop-opacity=".85"/><stop offset=".45" stop-color="#fff" stop-opacity=".1"/><stop offset=".7" stop-color="#fff" stop-opacity=".05"/><stop offset="1" stop-color="#fff" stop-opacity=".45"/></linearGradient>
<filter id="sh" x="-30%" y="-30%" width="160%" height="170%"><feDropShadow dx="0" dy="4" stdDeviation="4" flood-color="#166534" flood-opacity=".55"/></filter>
<filter id="gw" x="-50%" y="-50%" width="200%" height="200%"><feGaussianBlur stdDeviation="3"/></filter>
</defs>
<rect width="120" height="120" rx="27" fill="url(#bg)"/>
<rect width="120" height="120" rx="27" fill="url(#vg)"/>
<rect width="120" height="120" rx="27" fill="url(#lt)"/>
<g filter="url(#sh)"><path d="M60 34c-10-7-24-8-38-4v58c14-4 28-3 38 4z" fill="url(#gl)"/><path d="M60 34c10-7 24-8 38-4v58c-14-4-28-3-38 4z" fill="url(#fr)"/><path d="M30 46h21M30 57h21M30 68h14" stroke="#16a34a" stroke-opacity=".5" stroke-width="4" stroke-linecap="round"/></g>
<rect x="1" y="1" width="118" height="118" rx="26" fill="none" stroke="url(#rim)" stroke-width="2"/>
</svg>
