<svg xmlns="http://www.w3.org/2000/svg" viewBox="0 0 120 120" width="120" height="120"><title>Tin nhắn</title>
<defs>
<linearGradient id="bg" x1=".15" y1="0" x2=".85" y2="1"><stop offset="0" stop-color="#5eead4"/><stop offset="1" stop-color="#0b7a72"/></linearGradient>
<radialGradient id="lt" cx=".22" cy=".08" r=".85"><stop offset="0" stop-color="#fff" stop-opacity=".5"/><stop offset=".5" stop-color="#fff" stop-opacity=".08"/><stop offset="1" stop-color="#fff" stop-opacity="0"/></radialGradient>
<radialGradient id="vg" cx=".5" cy="1.1" r=".75"><stop offset="0" stop-color="#000" stop-opacity=".22"/><stop offset="1" stop-color="#000" stop-opacity="0"/></radialGradient>
<linearGradient id="gl" x1="0" y1="0" x2="0" y2="1"><stop offset="0" stop-color="#fff"/><stop offset="1" stop-color="#fff" stop-opacity=".82"/></linearGradient>
<linearGradient id="fr" x1="0" y1="0" x2="0" y2="1"><stop offset="0" stop-color="#fff" stop-opacity=".62"/><stop offset="1" stop-color="#fff" stop-opacity=".28"/></linearGradient>
<linearGradient id="rim" x1="0" y1="0" x2="1" y2="1"><stop offset="0" stop-color="#fff" stop-opacity=".85"/><stop offset=".45" stop-color="#fff" stop-opacity=".1"/><stop offset=".7" stop-color="#fff" stop-opacity=".05"/><stop offset="1" stop-color="#fff" stop-opacity=".45"/></linearGradient>
<filter id="sh" x="-30%" y="-30%" width="160%" height="170%"><feDropShadow dx="0" dy="4" stdDeviation="4" flood-color="#0b7a72" flood-opacity=".55"/></filter>
<filter id="gw" x="-50%" y="-50%" width="200%" height="200%"><feGaussianBlur stdDeviation="3"/></filter>
</defs>
<rect width="120" height="120" rx="27" fill="url(#bg)"/>
<rect width="120" height="120" rx="27" fill="url(#vg)"/>
<rect width="120" height="120" rx="27" fill="url(#lt)"/>
<g filter="url(#sh)"><path d="M44 30h46a10 10 0 0 1 10 10v26a10 10 0 0 1-10 10h-4v12l-14-12H44a10 10 0 0 1-10-10V40a10 10 0 0 1 10-10z" fill="url(#fr)"/><path d="M30 42h44a10 10 0 0 1 10 10v24a10 10 0 0 1-10 10H48L34 98V86h-4a10 10 0 0 1-10-10V52a10 10 0 0 1 10-10z" fill="url(#gl)"/><circle cx="38" cy="64" r="4.5" fill="#0d9488"/><circle cx="52" cy="64" r="4.5" fill="#0d9488"/><circle cx="66" cy="64" r="4.5" fill="#0d9488"/></g>
<rect x="1" y="1" width="118" height="118" rx="26" fill="none" stroke="url(#rim)" stroke-width="2"/>
</svg>
