<svg xmlns="http://www.w3.org/2000/svg" viewBox="0 0 120 120" width="120" height="120"><title>Điện thoại</title>
<defs>
<linearGradient id="bg" x1=".15" y1="0" x2=".85" y2="1"><stop offset="0" stop-color="#86efac"/><stop offset="1" stop-color="#15803d"/></linearGradient>
<radialGradient id="lt" cx=".22" cy=".08" r=".85"><stop offset="0" stop-color="#fff" stop-opacity=".5"/><stop offset=".5" stop-color="#fff" stop-opacity=".08"/><stop offset="1" stop-color="#fff" stop-opacity="0"/></radialGradient>
<radialGradient id="vg" cx=".5" cy="1.1" r=".75"><stop offset="0" stop-color="#000" stop-opacity=".22"/><stop offset="1" stop-color="#000" stop-opacity="0"/></radialGradient>
<linearGradient id="gl" x1="0" y1="0" x2="0" y2="1"><stop offset="0" stop-color="#fff"/><stop offset="1" stop-color="#fff" stop-opacity=".82"/></linearGradient>
<linearGradient id="fr" x1="0" y1="0" x2="0" y2="1"><stop offset="0" stop-color="#fff" stop-opacity=".62"/><stop offset="1" stop-color="#fff" stop-opacity=".28"/></linearGradient>
<linearGradient id="rim" x1="0" y1="0" x2="1" y2="1"><stop offset="0" stop-color="#fff" stop-opacity=".85"/><stop offset=".45" stop-color="#fff" stop-opacity=".1"/><stop offset=".7" stop-color="#fff" stop-opacity=".05"/><stop offset="1" stop-color="#fff" stop-opacity=".45"/></linearGradient>
<filter id="sh" x="-30%" y="-30%" width="160%" height="170%"><feDropShadow dx="0" dy="4" stdDeviation="4" flood-color="#15803d" flood-opacity=".55"/></filter>
<filter id="gw" x="-50%" y="-50%" width="200%" height="200%"><feGaussianBlur stdDeviation="3"/></filter>
</defs>
<rect width="120" height="120" rx="27" fill="url(#bg)"/>
<rect width="120" height="120" rx="27" fill="url(#vg)"/>
<rect width="120" height="120" rx="27" fill="url(#lt)"/>
<g filter="url(#sh)"><rect x="34" y="14" width="52" height="92" rx="13" fill="url(#gl)"/><rect x="40" y="24" width="40" height="66" rx="6" fill="#dcfce7"/><rect x="52" y="96" width="16" height="4" rx="2" fill="#86efac"/><path d="M50 50a14 14 0 0 1 20 0M54 56a8 8 0 0 1 12 0" fill="none" stroke="#16a34a" stroke-width="4" stroke-linecap="round"/><circle cx="60" cy="63" r="3.5" fill="#16a34a"/></g>
<rect x="1" y="1" width="118" height="118" rx="26" fill="none" stroke="url(#rim)" stroke-width="2"/>
</svg>
