<svg xmlns="http://www.w3.org/2000/svg" viewBox="0 0 120 120" width="120" height="120"><title>AI đọc BCTC</title>
<defs>
<linearGradient id="bg" x1="0" y1="0" x2="1" y2="1"><stop offset="0" stop-color="#a78bfa"/><stop offset="1" stop-color="#5b21b6"/></linearGradient>
<radialGradient id="hi" cx=".3" cy="0" r=".9"><stop offset="0" stop-color="#fff" stop-opacity=".55"/><stop offset=".55" stop-color="#fff" stop-opacity="0"/></radialGradient>
<linearGradient id="rim" x1="0" y1="0" x2="0" y2="1"><stop offset="0" stop-color="#fff" stop-opacity=".7"/><stop offset=".5" stop-color="#fff" stop-opacity=".08"/><stop offset="1" stop-color="#fff" stop-opacity=".3"/></linearGradient>
<filter id="sh" x="-20%" y="-20%" width="140%" height="150%"><feDropShadow dx="0" dy="3" stdDeviation="3" flood-color="#000" flood-opacity=".22"/></filter>
</defs>
<rect width="120" height="120" rx="27" fill="url(#bg)"/>
<rect width="120" height="120" rx="27" fill="url(#hi)"/>
<g filter="url(#sh)"><rect x="30" y="22" width="46" height="62" rx="8" fill="#fff"/><path d="M40 38h26M40 48h26M40 58h16" stroke="#7c3aed" stroke-opacity=".55" stroke-width="5" stroke-linecap="round"/><path d="M84 60l4.2 11.3L99.5 75.5 88.2 79.7 84 91l-4.2-11.3L68.5 75.5l11.3-4.2z" fill="#fff"/><path d="M96 40l2.2 5.8L104 48l-5.8 2.2L96 56l-2.2-5.8L88 48l5.8-2.2z" fill="#fff" fill-opacity=".85"/></g>
<rect x="1" y="1" width="118" height="118" rx="26" fill="none" stroke="url(#rim)" stroke-width="2"/>
</svg>
