<svg xmlns="http://www.w3.org/2000/svg" viewBox="0 0 120 120" width="120" height="120"><title>Coffee Connect</title>
<defs>
<linearGradient id="bg" x1="0" y1="0" x2="1" y2="1"><stop offset="0" stop-color="#f59e0b"/><stop offset="1" stop-color="#92400e"/></linearGradient>
<radialGradient id="hi" cx=".3" cy="0" r=".9"><stop offset="0" stop-color="#fff" stop-opacity=".55"/><stop offset=".55" stop-color="#fff" stop-opacity="0"/></radialGradient>
<linearGradient id="rim" x1="0" y1="0" x2="0" y2="1"><stop offset="0" stop-color="#fff" stop-opacity=".7"/><stop offset=".5" stop-color="#fff" stop-opacity=".08"/><stop offset="1" stop-color="#fff" stop-opacity=".3"/></linearGradient>
<filter id="sh" x="-20%" y="-20%" width="140%" height="150%"><feDropShadow dx="0" dy="3" stdDeviation="3" flood-color="#000" flood-opacity=".22"/></filter>
</defs>
<rect width="120" height="120" rx="27" fill="url(#bg)"/>
<rect width="120" height="120" rx="27" fill="url(#hi)"/>
<g filter="url(#sh)"><path d="M28 50h52v18a22 22 0 0 1-22 22h-8a22 22 0 0 1-22-22z" fill="#fff"/><path d="M80 56h4a10 10 0 0 1 0 20h-6" fill="none" stroke="#fff" stroke-width="6"/><path d="M42 26c-4 5 4 8 0 13M54 24c-4 5 4 8 0 13M66 26c-4 5 4 8 0 13" fill="none" stroke="#fff" stroke-opacity=".8" stroke-width="4" stroke-linecap="round"/></g>
<rect x="1" y="1" width="118" height="118" rx="26" fill="none" stroke="url(#rim)" stroke-width="2"/>
</svg>
