<svg xmlns="http://www.w3.org/2000/svg" xmlns:xlink="http://www.w3.org/1999/xlink" viewBox="86.49 149.33 217.61 80.73" width="217.61" height="80.73" preserveAspectRatio="xMidYMid meet" version="1.0"><title>elevaTO</title><defs><g/><clipPath id="9b7c6fa6d6"><path d="M 272 159 L 294 159 L 294 181 L 272 181 Z M 272 159 " clip-rule="nonzero"/></clipPath><clipPath id="735401c294"><path d="M 268.230469 162.457031 L 283.101562 148.714844 L 303.464844 170.746094 L 288.59375 184.488281 Z M 268.230469 162.457031 " clip-rule="nonzero"/></clipPath><clipPath id="fc250c6b77"><path d="M 268.230469 162.457031 L 283.101562 148.714844 L 303.464844 170.746094 L 288.59375 184.488281 Z M 268.230469 162.457031 " clip-rule="nonzero"/></clipPath><clipPath id="f092f79897"><path d="M 283 149 L 305 149 L 305 171 L 283 171 Z M 283 149 " clip-rule="nonzero"/></clipPath><clipPath id="fde9e99259"><path d="M 278.902344 152.597656 L 293.773438 138.851562 L 314.132812 160.882812 L 299.261719 174.628906 Z M 278.902344 152.597656 " clip-rule="nonzero"/></clipPath><clipPath id="b6350d2a55"><path d="M 278.902344 152.597656 L 293.773438 138.851562 L 314.132812 160.882812 L 299.261719 174.628906 Z M 278.902344 152.597656 " clip-rule="nonzero"/></clipPath><clipPath id="6f8c949a37"><rect x="0" width="208" y="0" height="25"/></clipPath></defs><g clip-path="url(#9b7c6fa6d6)"><g clip-path="url(#735401c294)"><g clip-path="url(#fc250c6b77)"><path fill="#18cb96" d="M 293.4375 160 L 275.414062 159.199219 C 271.929688 159.042969 271.34375 165.824219 275.46875 165.9375 L 286.683594 166.242188 L 285.828125 177.527344 C 285.566406 180.964844 292.269531 181.328125 292.460938 177.835938 Z M 293.4375 160 " fill-opacity="1" fill-rule="nonzero"/></g></g></g><g clip-path="url(#f092f79897)"><g clip-path="url(#fde9e99259)"><g clip-path="url(#b6350d2a55)"><path fill="#18cb96" d="M 304.109375 150.136719 L 286.082031 149.335938 C 282.601562 149.183594 282.015625 155.964844 286.140625 156.074219 L 297.355469 156.378906 L 296.496094 167.664062 C 296.238281 171.101562 302.9375 171.464844 303.128906 167.972656 Z M 304.109375 150.136719 " fill-opacity="1" fill-rule="nonzero"/></g></g></g><g fill="#373643" fill-opacity="1"><g transform="translate(86.561081, 203.373985)"><g><path d="M 15.34375 -4.78125 C 16.382812 -4.78125 17.40625 -4.921875 18.40625 -5.203125 C 19.40625 -5.492188 20.332031 -5.976562 21.1875 -6.65625 C 22.007812 -7.40625 22.816406 -7.753906 23.609375 -7.703125 C 24.398438 -7.648438 25.050781 -7.363281 25.5625 -6.84375 C 26.082031 -6.320312 26.34375 -5.675781 26.34375 -4.90625 C 26.34375 -4.132812 25.96875 -3.394531 25.21875 -2.6875 C 23.96875 -1.46875 22.484375 -0.613281 20.765625 -0.125 C 19.046875 0.351562 17.289062 0.570312 15.5 0.53125 C 12.71875 0.53125 10.257812 -0.0351562 8.125 -1.171875 C 6 -2.316406 4.335938 -3.910156 3.140625 -5.953125 C 1.941406 -7.992188 1.34375 -10.351562 1.34375 -13.03125 C 1.34375 -15.96875 1.914062 -18.546875 3.0625 -20.765625 C 4.207031 -22.984375 5.820312 -24.71875 7.90625 -25.96875 C 10 -27.21875 12.476562 -27.84375 15.34375 -27.84375 C 18.207031 -27.84375 20.640625 -27.257812 22.640625 -26.09375 C 24.640625 -24.9375 26.164062 -23.3125 27.21875 -21.21875 C 28.28125 -19.125 28.8125 -16.679688 28.8125 -13.890625 C 28.8125 -13.003906 28.628906 -12.242188 28.265625 -11.609375 C 27.910156 -10.984375 26.96875 -10.671875 25.4375 -10.671875 L 7.5625 -10.671875 C 8.0625 -8.921875 9.007812 -7.5 10.40625 -6.40625 C 11.800781 -5.320312 13.445312 -4.78125 15.34375 -4.78125 Z M 15.40625 -22.53125 C 13.320312 -22.53125 11.582031 -21.878906 10.1875 -20.578125 C 8.800781 -19.273438 7.910156 -17.566406 7.515625 -15.453125 L 23.125 -15.453125 C 22.945312 -17.566406 22.25 -19.273438 21.03125 -20.578125 C 19.8125 -21.878906 17.9375 -22.53125 15.40625 -22.53125 Z M 15.40625 -22.53125 "/></g></g></g><g fill="#373643" fill-opacity="1"><g transform="translate(117.737474, 203.373985)"><g><path d="M 8 -2.6875 C 8 -1.96875 7.703125 -1.335938 7.109375 -0.796875 C 6.515625 -0.265625 5.789062 0 4.9375 0 C 4.039062 0 3.304688 -0.265625 2.734375 -0.796875 C 2.160156 -1.335938 1.875 -1.96875 1.875 -2.6875 L 1.875 -32.03125 C 1.875 -32.75 2.160156 -33.375 2.734375 -33.90625 C 3.304688 -34.445312 4.039062 -34.71875 4.9375 -34.71875 C 5.789062 -34.71875 6.515625 -34.445312 7.109375 -33.90625 C 7.703125 -33.375 8 -32.75 8 -32.03125 Z M 8 -2.6875 "/></g></g></g><g fill="#373643" fill-opacity="1"><g transform="translate(126.537614, 203.373985)"><g><path d="M 15.34375 -4.78125 C 16.382812 -4.78125 17.40625 -4.921875 18.40625 -5.203125 C 19.40625 -5.492188 20.332031 -5.976562 21.1875 -6.65625 C 22.007812 -7.40625 22.816406 -7.753906 23.609375 -7.703125 C 24.398438 -7.648438 25.050781 -7.363281 25.5625 -6.84375 C 26.082031 -6.320312 26.34375 -5.675781 26.34375 -4.90625 C 26.34375 -4.132812 25.96875 -3.394531 25.21875 -2.6875 C 23.96875 -1.46875 22.484375 -0.613281 20.765625 -0.125 C 19.046875 0.351562 17.289062 0.570312 15.5 0.53125 C 12.71875 0.53125 10.257812 -0.0351562 8.125 -1.171875 C 6 -2.316406 4.335938 -3.910156 3.140625 -5.953125 C 1.941406 -7.992188 1.34375 -10.351562 1.34375 -13.03125 C 1.34375 -15.96875 1.914062 -18.546875 3.0625 -20.765625 C 4.207031 -22.984375 5.820312 -24.71875 7.90625 -25.96875 C 10 -27.21875 12.476562 -27.84375 15.34375 -27.84375 C 18.207031 -27.84375 20.640625 -27.257812 22.640625 -26.09375 C 24.640625 -24.9375 26.164062 -23.3125 27.21875 -21.21875 C 28.28125 -19.125 28.8125 -16.679688 28.8125 -13.890625 C 28.8125 -13.003906 28.628906 -12.242188 28.265625 -11.609375 C 27.910156 -10.984375 26.96875 -10.671875 25.4375 -10.671875 L 7.5625 -10.671875 C 8.0625 -8.921875 9.007812 -7.5 10.40625 -6.40625 C 11.800781 -5.320312 13.445312 -4.78125 15.34375 -4.78125 Z M 15.40625 -22.53125 C 13.320312 -22.53125 11.582031 -21.878906 10.1875 -20.578125 C 8.800781 -19.273438 7.910156 -17.566406 7.515625 -15.453125 L 23.125 -15.453125 C 22.945312 -17.566406 22.25 -19.273438 21.03125 -20.578125 C 19.8125 -21.878906 17.9375 -22.53125 15.40625 -22.53125 Z M 15.40625 -22.53125 "/></g></g></g><g fill="#373643" fill-opacity="1"><g transform="translate(157.714007, 203.373985)"><g><path d="M 0.046875 -23.28125 C -0.203125 -24 -0.210938 -24.660156 0.015625 -25.265625 C 0.253906 -25.878906 0.648438 -26.375 1.203125 -26.75 C 1.753906 -27.125 2.335938 -27.3125 2.953125 -27.3125 C 3.597656 -27.3125 4.160156 -27.140625 4.640625 -26.796875 C 5.117188 -26.460938 5.484375 -26.007812 5.734375 -25.4375 L 13.953125 -8.796875 L 22.15625 -25.484375 C 22.476562 -26.128906 22.898438 -26.59375 23.421875 -26.875 C 23.941406 -27.164062 24.488281 -27.3125 25.0625 -27.3125 C 25.695312 -27.3125 26.273438 -27.140625 26.796875 -26.796875 C 27.316406 -26.460938 27.675781 -26 27.875 -25.40625 C 28.070312 -24.8125 27.972656 -24.125 27.578125 -23.34375 L 16.640625 -1.125 C 16.390625 -0.65625 16.007812 -0.265625 15.5 0.046875 C 15 0.367188 14.445312 0.53125 13.84375 0.53125 C 12.664062 0.53125 11.769531 0.0117188 11.15625 -1.015625 Z M 0.046875 -23.28125 "/></g></g></g><g fill="#373643" fill-opacity="1"><g transform="translate(185.456154, 203.373985)"><g><path d="M 24.953125 -27.3125 C 25.878906 -27.3125 26.617188 -27.050781 27.171875 -26.53125 C 27.734375 -26.007812 28.015625 -25.335938 28.015625 -24.515625 L 28.015625 -2.796875 C 28.015625 -1.972656 27.734375 -1.300781 27.171875 -0.78125 C 26.617188 -0.257812 25.878906 0 24.953125 0 C 24.054688 0 23.359375 -0.203125 22.859375 -0.609375 C 22.359375 -1.023438 22.054688 -1.570312 21.953125 -2.25 C 20.734375 -1.289062 19.367188 -0.585938 17.859375 -0.140625 C 16.359375 0.304688 14.929688 0.53125 13.578125 0.53125 C 11.003906 0.53125 8.773438 -0.0546875 6.890625 -1.234375 C 5.015625 -2.410156 3.578125 -4.070312 2.578125 -6.21875 C 1.578125 -8.363281 1.078125 -10.867188 1.078125 -13.734375 C 1.078125 -16.523438 1.628906 -18.972656 2.734375 -21.078125 C 3.847656 -23.191406 5.394531 -24.847656 7.375 -26.046875 C 9.363281 -27.242188 11.660156 -27.84375 14.265625 -27.84375 C 15.410156 -27.84375 16.679688 -27.628906 18.078125 -27.203125 C 19.472656 -26.773438 20.765625 -26.097656 21.953125 -25.171875 C 22.085938 -25.804688 22.40625 -26.320312 22.90625 -26.71875 C 23.40625 -27.113281 24.085938 -27.3125 24.953125 -27.3125 Z M 14.21875 -4.875 C 15.789062 -4.875 17.3125 -5.222656 18.78125 -5.921875 C 20.25 -6.617188 21.285156 -7.648438 21.890625 -9.015625 L 21.890625 -18.296875 C 21.210938 -19.617188 20.191406 -20.632812 18.828125 -21.34375 C 17.472656 -22.0625 16.097656 -22.421875 14.703125 -22.421875 C 12.453125 -22.421875 10.632812 -21.597656 9.25 -19.953125 C 7.875 -18.304688 7.1875 -16.21875 7.1875 -13.6875 C 7.1875 -11.039062 7.828125 -8.910156 9.109375 -7.296875 C 10.398438 -5.679688 12.101562 -4.875 14.21875 -4.875 Z M 14.21875 -4.875 "/></g></g></g><g fill="#373643" fill-opacity="1"><g transform="translate(216.471575, 203.373985)"><g><path d="M 27.796875 -34.171875 C 28.828125 -34.171875 29.609375 -33.882812 30.140625 -33.3125 C 30.679688 -32.75 30.953125 -32.109375 30.953125 -31.390625 C 30.953125 -30.710938 30.679688 -30.085938 30.140625 -29.515625 C 29.609375 -28.941406 28.828125 -28.65625 27.796875 -28.65625 L 17.8125 -28.65625 L 17.875 -2.84375 C 17.875 -1.875 17.523438 -1.15625 16.828125 -0.6875 C 16.128906 -0.226562 15.421875 0 14.703125 0 C 13.953125 0 13.242188 -0.226562 12.578125 -0.6875 C 11.921875 -1.15625 11.59375 -1.875 11.59375 -2.84375 L 11.59375 -28.65625 L 1.65625 -28.65625 C 0.625 -28.65625 -0.128906 -28.941406 -0.609375 -29.515625 C -1.097656 -30.085938 -1.34375 -30.710938 -1.34375 -31.390625 C -1.34375 -32.109375 -1.097656 -32.75 -0.609375 -33.3125 C -0.128906 -33.882812 0.625 -34.171875 1.65625 -34.171875 Z M 27.796875 -34.171875 "/></g></g></g><g fill="#373643" fill-opacity="1"><g transform="translate(246.038173, 203.373985)"><g><path d="M 36.21875 -17.0625 C 36.21875 -13.550781 35.492188 -10.472656 34.046875 -7.828125 C 32.597656 -5.179688 30.566406 -3.125 27.953125 -1.65625 C 25.335938 -0.195312 22.28125 0.53125 18.78125 0.53125 C 15.269531 0.53125 12.191406 -0.195312 9.546875 -1.65625 C 6.898438 -3.125 4.84375 -5.179688 3.375 -7.828125 C 1.914062 -10.472656 1.1875 -13.550781 1.1875 -17.0625 C 1.1875 -20.601562 1.914062 -23.695312 3.375 -26.34375 C 4.84375 -28.988281 6.898438 -31.046875 9.546875 -32.515625 C 12.191406 -33.984375 15.269531 -34.71875 18.78125 -34.71875 C 22.28125 -34.71875 25.335938 -33.984375 27.953125 -32.515625 C 30.566406 -31.046875 32.597656 -28.988281 34.046875 -26.34375 C 35.492188 -23.695312 36.21875 -20.601562 36.21875 -17.0625 Z M 18.78125 -4.9375 C 21.03125 -4.9375 22.988281 -5.445312 24.65625 -6.46875 C 26.320312 -7.488281 27.617188 -8.910156 28.546875 -10.734375 C 29.472656 -12.554688 29.9375 -14.664062 29.9375 -17.0625 C 29.9375 -19.5 29.472656 -21.628906 28.546875 -23.453125 C 27.617188 -25.273438 26.320312 -26.695312 24.65625 -27.71875 C 22.988281 -28.738281 21.03125 -29.25 18.78125 -29.25 C 16.53125 -29.25 14.550781 -28.738281 12.84375 -27.71875 C 11.144531 -26.695312 9.832031 -25.273438 8.90625 -23.453125 C 7.976562 -21.628906 7.515625 -19.5 7.515625 -17.0625 C 7.515625 -14.664062 7.976562 -12.554688 8.90625 -10.734375 C 9.832031 -8.910156 11.144531 -7.488281 12.84375 -6.46875 C 14.550781 -5.445312 16.53125 -4.9375 18.78125 -4.9375 Z M 18.78125 -4.9375 "/></g></g></g><g transform="matrix(1, 0, 0, 1, 84, 207)"><g clip-path="url(#6f8c949a37)"><g fill="#373643" fill-opacity="1"><g transform="translate(1.10417, 18.769265)"><g><path d="M 7.5 -11.84375 L 7.5 -11.203125 L 2.140625 -11.203125 L 2.140625 -6.265625 L 6.8125 -6.265625 L 6.8125 -5.625 L 2.140625 -5.625 L 2.140625 0 L 1.390625 0 L 1.390625 -11.84375 Z M 7.5 -11.84375 "/></g></g></g><g fill="#373643" fill-opacity="1"><g transform="translate(8.580939, 18.769265)"><g><path d="M 9.125 -9.15625 L 9.125 0 L 8.375 0 L 8.375 -1.984375 C 8.113281 -1.285156 7.679688 -0.753906 7.078125 -0.390625 C 6.472656 -0.0234375 5.785156 0.15625 5.015625 0.15625 C 3.921875 0.15625 3.023438 -0.175781 2.328125 -0.84375 C 1.640625 -1.519531 1.296875 -2.515625 1.296875 -3.828125 L 1.296875 -9.15625 L 2.046875 -9.15625 L 2.046875 -3.875 C 2.046875 -2.789062 2.320312 -1.957031 2.875 -1.375 C 3.425781 -0.789062 4.171875 -0.5 5.109375 -0.5 C 6.097656 -0.5 6.890625 -0.8125 7.484375 -1.4375 C 8.078125 -2.070312 8.375 -3.007812 8.375 -4.25 L 8.375 -9.15625 Z M 9.125 -9.15625 "/></g></g></g><g fill="#373643" fill-opacity="1"><g transform="translate(18.454372, 18.769265)"><g><path d="M 9.640625 -5.203125 C 9.640625 -4.796875 9.628906 -4.488281 9.609375 -4.28125 L 1.6875 -4.28125 C 1.707031 -3.457031 1.882812 -2.765625 2.21875 -2.203125 C 2.5625 -1.640625 3.007812 -1.21875 3.5625 -0.9375 C 4.113281 -0.65625 4.710938 -0.515625 5.359375 -0.515625 C 6.265625 -0.515625 7.019531 -0.738281 7.625 -1.1875 C 8.226562 -1.632812 8.613281 -2.238281 8.78125 -3 L 9.5625 -3 C 9.382812 -2.070312 8.925781 -1.316406 8.1875 -0.734375 C 7.445312 -0.148438 6.503906 0.140625 5.359375 0.140625 C 4.503906 0.140625 3.738281 -0.0507812 3.0625 -0.4375 C 2.394531 -0.820312 1.867188 -1.367188 1.484375 -2.078125 C 1.097656 -2.796875 0.90625 -3.632812 0.90625 -4.59375 C 0.90625 -5.550781 1.09375 -6.382812 1.46875 -7.09375 C 1.851562 -7.800781 2.378906 -8.34375 3.046875 -8.71875 C 3.722656 -9.09375 4.492188 -9.28125 5.359375 -9.28125 C 6.242188 -9.28125 7.007812 -9.09375 7.65625 -8.71875 C 8.300781 -8.34375 8.789062 -7.84375 9.125 -7.21875 C 9.46875 -6.59375 9.640625 -5.921875 9.640625 -5.203125 Z M 8.875 -4.90625 C 8.90625 -5.71875 8.757812 -6.40625 8.4375 -6.96875 C 8.125 -7.53125 7.691406 -7.945312 7.140625 -8.21875 C 6.585938 -8.5 5.988281 -8.640625 5.34375 -8.640625 C 4.707031 -8.640625 4.113281 -8.5 3.5625 -8.21875 C 3.019531 -7.945312 2.578125 -7.53125 2.234375 -6.96875 C 1.890625 -6.40625 1.707031 -5.71875 1.6875 -4.90625 Z M 8.875 -4.90625 "/></g></g></g><g fill="#373643" fill-opacity="1"><g transform="translate(28.361559, 18.769265)"><g><path d="M 2.140625 -12.484375 L 2.140625 0 L 1.390625 0 L 1.390625 -12.484375 Z M 2.140625 -12.484375 "/></g></g></g><g fill="#373643" fill-opacity="1"><g transform="translate(31.264399, 18.769265)"><g/></g></g><g fill="#373643" fill-opacity="1"><g transform="translate(35.382455, 18.769265)"><g><path d="M 8.6875 -11.84375 L 4.96875 -4.796875 L 4.96875 0 L 4.203125 0 L 4.203125 -4.796875 L 0.4375 -11.84375 L 1.296875 -11.84375 L 4.578125 -5.5 L 7.828125 -11.84375 Z M 8.6875 -11.84375 "/></g></g></g><g fill="#373643" fill-opacity="1"><g transform="translate(43.87189, 18.769265)"><g><path d="M 5.421875 0.140625 C 4.566406 0.140625 3.796875 -0.0507812 3.109375 -0.4375 C 2.421875 -0.820312 1.878906 -1.367188 1.484375 -2.078125 C 1.097656 -2.796875 0.90625 -3.632812 0.90625 -4.59375 C 0.90625 -5.53125 1.101562 -6.359375 1.5 -7.078125 C 1.894531 -7.796875 2.4375 -8.34375 3.125 -8.71875 C 3.820312 -9.09375 4.597656 -9.28125 5.453125 -9.28125 C 6.304688 -9.28125 7.078125 -9.09375 7.765625 -8.71875 C 8.453125 -8.34375 8.988281 -7.800781 9.375 -7.09375 C 9.757812 -6.382812 9.953125 -5.550781 9.953125 -4.59375 C 9.953125 -3.632812 9.753906 -2.796875 9.359375 -2.078125 C 8.972656 -1.367188 8.429688 -0.820312 7.734375 -0.4375 C 7.046875 -0.0507812 6.273438 0.140625 5.421875 0.140625 Z M 5.421875 -0.546875 C 6.078125 -0.546875 6.695312 -0.691406 7.28125 -0.984375 C 7.863281 -1.285156 8.328125 -1.738281 8.671875 -2.34375 C 9.023438 -2.945312 9.203125 -3.695312 9.203125 -4.59375 C 9.203125 -5.46875 9.023438 -6.207031 8.671875 -6.8125 C 8.328125 -7.425781 7.863281 -7.878906 7.28125 -8.171875 C 6.707031 -8.472656 6.09375 -8.625 5.4375 -8.625 C 4.769531 -8.625 4.148438 -8.472656 3.578125 -8.171875 C 3.015625 -7.878906 2.554688 -7.425781 2.203125 -6.8125 C 1.859375 -6.207031 1.6875 -5.46875 1.6875 -4.59375 C 1.6875 -3.695312 1.859375 -2.945312 2.203125 -2.34375 C 2.546875 -1.738281 3 -1.285156 3.5625 -0.984375 C 4.132812 -0.691406 4.753906 -0.546875 5.421875 -0.546875 Z M 5.421875 -0.546875 "/></g></g></g><g fill="#373643" fill-opacity="1"><g transform="translate(54.116628, 18.769265)"><g><path d="M 9.125 -9.15625 L 9.125 0 L 8.375 0 L 8.375 -1.984375 C 8.113281 -1.285156 7.679688 -0.753906 7.078125 -0.390625 C 6.472656 -0.0234375 5.785156 0.15625 5.015625 0.15625 C 3.921875 0.15625 3.023438 -0.175781 2.328125 -0.84375 C 1.640625 -1.519531 1.296875 -2.515625 1.296875 -3.828125 L 1.296875 -9.15625 L 2.046875 -9.15625 L 2.046875 -3.875 C 2.046875 -2.789062 2.320312 -1.957031 2.875 -1.375 C 3.425781 -0.789062 4.171875 -0.5 5.109375 -0.5 C 6.097656 -0.5 6.890625 -0.8125 7.484375 -1.4375 C 8.078125 -2.070312 8.375 -3.007812 8.375 -4.25 L 8.375 -9.15625 Z M 9.125 -9.15625 "/></g></g></g><g fill="#373643" fill-opacity="1"><g transform="translate(63.990062, 18.769265)"><g><path d="M 2.140625 -7.265625 C 2.367188 -7.941406 2.769531 -8.457031 3.34375 -8.8125 C 3.914062 -9.164062 4.644531 -9.34375 5.53125 -9.34375 L 5.53125 -8.5625 L 5.28125 -8.5625 C 4.382812 -8.5625 3.632812 -8.300781 3.03125 -7.78125 C 2.4375 -7.269531 2.140625 -6.4375 2.140625 -5.28125 L 2.140625 0 L 1.390625 0 L 1.390625 -9.15625 L 2.140625 -9.15625 Z M 2.140625 -7.265625 "/></g></g></g><g fill="#373643" fill-opacity="1"><g transform="translate(69.255812, 18.769265)"><g/></g></g><g fill="#373643" fill-opacity="1"><g transform="translate(73.373868, 18.769265)"><g><path d="M 7.5 -11.84375 L 7.5 -11.203125 L 2.140625 -11.203125 L 2.140625 -6.265625 L 6.8125 -6.265625 L 6.8125 -5.625 L 2.140625 -5.625 L 2.140625 0 L 1.390625 0 L 1.390625 -11.84375 Z M 7.5 -11.84375 "/></g></g></g><g fill="#373643" fill-opacity="1"><g transform="translate(80.850636, 18.769265)"><g><path d="M 1.765625 -11.203125 C 1.585938 -11.203125 1.4375 -11.257812 1.3125 -11.375 C 1.1875 -11.5 1.125 -11.660156 1.125 -11.859375 C 1.125 -12.054688 1.1875 -12.210938 1.3125 -12.328125 C 1.4375 -12.453125 1.585938 -12.515625 1.765625 -12.515625 C 1.953125 -12.515625 2.101562 -12.453125 2.21875 -12.328125 C 2.34375 -12.210938 2.40625 -12.054688 2.40625 -11.859375 C 2.40625 -11.660156 2.34375 -11.5 2.21875 -11.375 C 2.101562 -11.257812 1.953125 -11.203125 1.765625 -11.203125 Z M 2.140625 -9.15625 L 2.140625 0 L 1.390625 0 L 1.390625 -9.15625 Z M 2.140625 -9.15625 "/></g></g></g><g fill="#373643" fill-opacity="1"><g transform="translate(83.753476, 18.769265)"><g><path d="M 5.515625 -9.34375 C 6.609375 -9.34375 7.5 -9.007812 8.1875 -8.34375 C 8.875 -7.675781 9.21875 -6.679688 9.21875 -5.359375 L 9.21875 0 L 8.46875 0 L 8.46875 -5.3125 C 8.46875 -6.40625 8.191406 -7.238281 7.640625 -7.8125 C 7.085938 -8.394531 6.34375 -8.6875 5.40625 -8.6875 C 4.414062 -8.6875 3.625 -8.367188 3.03125 -7.734375 C 2.4375 -7.109375 2.140625 -6.175781 2.140625 -4.9375 L 2.140625 0 L 1.390625 0 L 1.390625 -9.15625 L 2.140625 -9.15625 L 2.140625 -7.21875 C 2.398438 -7.90625 2.832031 -8.429688 3.4375 -8.796875 C 4.039062 -9.160156 4.734375 -9.34375 5.515625 -9.34375 Z M 5.515625 -9.34375 "/></g></g></g><g fill="#373643" fill-opacity="1"><g transform="translate(93.62691, 18.769265)"><g><path d="M 0.90625 -4.59375 C 0.90625 -5.53125 1.09375 -6.351562 1.46875 -7.0625 C 1.851562 -7.78125 2.378906 -8.328125 3.046875 -8.703125 C 3.710938 -9.085938 4.472656 -9.28125 5.328125 -9.28125 C 6.296875 -9.28125 7.117188 -9.039062 7.796875 -8.5625 C 8.472656 -8.09375 8.945312 -7.492188 9.21875 -6.765625 L 9.21875 -9.15625 L 9.96875 -9.15625 L 9.96875 0 L 9.21875 0 L 9.21875 -2.40625 C 8.945312 -1.664062 8.46875 -1.054688 7.78125 -0.578125 C 7.101562 -0.0976562 6.285156 0.140625 5.328125 0.140625 C 4.472656 0.140625 3.710938 -0.0507812 3.046875 -0.4375 C 2.378906 -0.832031 1.851562 -1.382812 1.46875 -2.09375 C 1.09375 -2.8125 0.90625 -3.644531 0.90625 -4.59375 Z M 9.21875 -4.59375 C 9.21875 -5.382812 9.050781 -6.085938 8.71875 -6.703125 C 8.382812 -7.316406 7.929688 -7.789062 7.359375 -8.125 C 6.785156 -8.457031 6.144531 -8.625 5.4375 -8.625 C 4.6875 -8.625 4.03125 -8.460938 3.46875 -8.140625 C 2.90625 -7.816406 2.46875 -7.351562 2.15625 -6.75 C 1.84375 -6.144531 1.6875 -5.425781 1.6875 -4.59375 C 1.6875 -3.757812 1.84375 -3.035156 2.15625 -2.421875 C 2.46875 -1.816406 2.910156 -1.351562 3.484375 -1.03125 C 4.054688 -0.707031 4.707031 -0.546875 5.4375 -0.546875 C 6.144531 -0.546875 6.785156 -0.707031 7.359375 -1.03125 C 7.941406 -1.363281 8.394531 -1.835938 8.71875 -2.453125 C 9.050781 -3.066406 9.21875 -3.78125 9.21875 -4.59375 Z M 9.21875 -4.59375 "/></g></g></g><g fill="#373643" fill-opacity="1"><g transform="translate(104.344241, 18.769265)"><g><path d="M 5.515625 -9.34375 C 6.609375 -9.34375 7.5 -9.007812 8.1875 -8.34375 C 8.875 -7.675781 9.21875 -6.679688 9.21875 -5.359375 L 9.21875 0 L 8.46875 0 L 8.46875 -5.3125 C 8.46875 -6.40625 8.191406 -7.238281 7.640625 -7.8125 C 7.085938 -8.394531 6.34375 -8.6875 5.40625 -8.6875 C 4.414062 -8.6875 3.625 -8.367188 3.03125 -7.734375 C 2.4375 -7.109375 2.140625 -6.175781 2.140625 -4.9375 L 2.140625 0 L 1.390625 0 L 1.390625 -9.15625 L 2.140625 -9.15625 L 2.140625 -7.21875 C 2.398438 -7.90625 2.832031 -8.429688 3.4375 -8.796875 C 4.039062 -9.160156 4.734375 -9.34375 5.515625 -9.34375 Z M 5.515625 -9.34375 "/></g></g></g><g fill="#373643" fill-opacity="1"><g transform="translate(114.217674, 18.769265)"><g><path d="M 0.90625 -4.59375 C 0.90625 -5.550781 1.09375 -6.382812 1.46875 -7.09375 C 1.851562 -7.800781 2.378906 -8.34375 3.046875 -8.71875 C 3.710938 -9.09375 4.476562 -9.28125 5.34375 -9.28125 C 6.5 -9.28125 7.441406 -8.992188 8.171875 -8.421875 C 8.910156 -7.847656 9.367188 -7.078125 9.546875 -6.109375 L 8.765625 -6.109375 C 8.609375 -6.898438 8.222656 -7.519531 7.609375 -7.96875 C 7.003906 -8.414062 6.25 -8.640625 5.34375 -8.640625 C 4.675781 -8.640625 4.066406 -8.488281 3.515625 -8.1875 C 2.960938 -7.894531 2.519531 -7.441406 2.1875 -6.828125 C 1.851562 -6.210938 1.6875 -5.46875 1.6875 -4.59375 C 1.6875 -3.695312 1.851562 -2.945312 2.1875 -2.34375 C 2.519531 -1.738281 2.960938 -1.28125 3.515625 -0.96875 C 4.066406 -0.664062 4.675781 -0.515625 5.34375 -0.515625 C 6.25 -0.515625 7.003906 -0.738281 7.609375 -1.1875 C 8.222656 -1.644531 8.609375 -2.265625 8.765625 -3.046875 L 9.546875 -3.046875 C 9.367188 -2.097656 8.90625 -1.328125 8.15625 -0.734375 C 7.414062 -0.148438 6.476562 0.140625 5.34375 0.140625 C 4.476562 0.140625 3.710938 -0.0507812 3.046875 -0.4375 C 2.378906 -0.820312 1.851562 -1.367188 1.46875 -2.078125 C 1.09375 -2.796875 0.90625 -3.632812 0.90625 -4.59375 Z M 0.90625 -4.59375 "/></g></g></g><g fill="#373643" fill-opacity="1"><g transform="translate(124.057353, 18.769265)"><g><path d="M 1.765625 -11.203125 C 1.585938 -11.203125 1.4375 -11.257812 1.3125 -11.375 C 1.1875 -11.5 1.125 -11.660156 1.125 -11.859375 C 1.125 -12.054688 1.1875 -12.210938 1.3125 -12.328125 C 1.4375 -12.453125 1.585938 -12.515625 1.765625 -12.515625 C 1.953125 -12.515625 2.101562 -12.453125 2.21875 -12.328125 C 2.34375 -12.210938 2.40625 -12.054688 2.40625 -11.859375 C 2.40625 -11.660156 2.34375 -11.5 2.21875 -11.375 C 2.101562 -11.257812 1.953125 -11.203125 1.765625 -11.203125 Z M 2.140625 -9.15625 L 2.140625 0 L 1.390625 0 L 1.390625 -9.15625 Z M 2.140625 -9.15625 "/></g></g></g><g fill="#373643" fill-opacity="1"><g transform="translate(126.960193, 18.769265)"><g><path d="M 0.90625 -4.59375 C 0.90625 -5.53125 1.09375 -6.351562 1.46875 -7.0625 C 1.851562 -7.78125 2.378906 -8.328125 3.046875 -8.703125 C 3.710938 -9.085938 4.472656 -9.28125 5.328125 -9.28125 C 6.296875 -9.28125 7.117188 -9.039062 7.796875 -8.5625 C 8.472656 -8.09375 8.945312 -7.492188 9.21875 -6.765625 L 9.21875 -9.15625 L 9.96875 -9.15625 L 9.96875 0 L 9.21875 0 L 9.21875 -2.40625 C 8.945312 -1.664062 8.46875 -1.054688 7.78125 -0.578125 C 7.101562 -0.0976562 6.285156 0.140625 5.328125 0.140625 C 4.472656 0.140625 3.710938 -0.0507812 3.046875 -0.4375 C 2.378906 -0.832031 1.851562 -1.382812 1.46875 -2.09375 C 1.09375 -2.8125 0.90625 -3.644531 0.90625 -4.59375 Z M 9.21875 -4.59375 C 9.21875 -5.382812 9.050781 -6.085938 8.71875 -6.703125 C 8.382812 -7.316406 7.929688 -7.789062 7.359375 -8.125 C 6.785156 -8.457031 6.144531 -8.625 5.4375 -8.625 C 4.6875 -8.625 4.03125 -8.460938 3.46875 -8.140625 C 2.90625 -7.816406 2.46875 -7.351562 2.15625 -6.75 C 1.84375 -6.144531 1.6875 -5.425781 1.6875 -4.59375 C 1.6875 -3.757812 1.84375 -3.035156 2.15625 -2.421875 C 2.46875 -1.816406 2.910156 -1.351562 3.484375 -1.03125 C 4.054688 -0.707031 4.707031 -0.546875 5.4375 -0.546875 C 6.144531 -0.546875 6.785156 -0.707031 7.359375 -1.03125 C 7.941406 -1.363281 8.394531 -1.835938 8.71875 -2.453125 C 9.050781 -3.066406 9.21875 -3.78125 9.21875 -4.59375 Z M 9.21875 -4.59375 "/></g></g></g><g fill="#373643" fill-opacity="1"><g transform="translate(137.677524, 18.769265)"><g><path d="M 2.140625 -12.484375 L 2.140625 0 L 1.390625 0 L 1.390625 -12.484375 Z M 2.140625 -12.484375 "/></g></g></g><g fill="#373643" fill-opacity="1"><g transform="translate(140.580364, 18.769265)"><g/></g></g><g fill="#373643" fill-opacity="1"><g transform="translate(144.698419, 18.769265)"><g><path d="M 6.328125 -11.84375 L 6.328125 -2.65625 C 6.328125 -1.832031 6.070312 -1.160156 5.5625 -0.640625 C 5.0625 -0.128906 4.378906 0.125 3.515625 0.125 C 2.597656 0.125 1.878906 -0.148438 1.359375 -0.703125 C 0.835938 -1.265625 0.578125 -2.035156 0.578125 -3.015625 L 1.328125 -3.015625 C 1.328125 -2.296875 1.5 -1.707031 1.84375 -1.25 C 2.195312 -0.789062 2.753906 -0.5625 3.515625 -0.5625 C 4.234375 -0.5625 4.75 -0.765625 5.0625 -1.171875 C 5.382812 -1.578125 5.546875 -2.070312 5.546875 -2.65625 L 5.546875 -11.84375 Z M 6.328125 -11.84375 "/></g></g></g><g fill="#373643" fill-opacity="1"><g transform="translate(151.871378, 18.769265)"><g><path d="M 5.421875 0.140625 C 4.566406 0.140625 3.796875 -0.0507812 3.109375 -0.4375 C 2.421875 -0.820312 1.878906 -1.367188 1.484375 -2.078125 C 1.097656 -2.796875 0.90625 -3.632812 0.90625 -4.59375 C 0.90625 -5.53125 1.101562 -6.359375 1.5 -7.078125 C 1.894531 -7.796875 2.4375 -8.34375 3.125 -8.71875 C 3.820312 -9.09375 4.597656 -9.28125 5.453125 -9.28125 C 6.304688 -9.28125 7.078125 -9.09375 7.765625 -8.71875 C 8.453125 -8.34375 8.988281 -7.800781 9.375 -7.09375 C 9.757812 -6.382812 9.953125 -5.550781 9.953125 -4.59375 C 9.953125 -3.632812 9.753906 -2.796875 9.359375 -2.078125 C 8.972656 -1.367188 8.429688 -0.820312 7.734375 -0.4375 C 7.046875 -0.0507812 6.273438 0.140625 5.421875 0.140625 Z M 5.421875 -0.546875 C 6.078125 -0.546875 6.695312 -0.691406 7.28125 -0.984375 C 7.863281 -1.285156 8.328125 -1.738281 8.671875 -2.34375 C 9.023438 -2.945312 9.203125 -3.695312 9.203125 -4.59375 C 9.203125 -5.46875 9.023438 -6.207031 8.671875 -6.8125 C 8.328125 -7.425781 7.863281 -7.878906 7.28125 -8.171875 C 6.707031 -8.472656 6.09375 -8.625 5.4375 -8.625 C 4.769531 -8.625 4.148438 -8.472656 3.578125 -8.171875 C 3.015625 -7.878906 2.554688 -7.425781 2.203125 -6.8125 C 1.859375 -6.207031 1.6875 -5.46875 1.6875 -4.59375 C 1.6875 -3.695312 1.859375 -2.945312 2.203125 -2.34375 C 2.546875 -1.738281 3 -1.285156 3.5625 -0.984375 C 4.132812 -0.691406 4.753906 -0.546875 5.421875 -0.546875 Z M 5.421875 -0.546875 "/></g></g></g><g fill="#373643" fill-opacity="1"><g transform="translate(162.116116, 18.769265)"><g><path d="M 9.125 -9.15625 L 9.125 0 L 8.375 0 L 8.375 -1.984375 C 8.113281 -1.285156 7.679688 -0.753906 7.078125 -0.390625 C 6.472656 -0.0234375 5.785156 0.15625 5.015625 0.15625 C 3.921875 0.15625 3.023438 -0.175781 2.328125 -0.84375 C 1.640625 -1.519531 1.296875 -2.515625 1.296875 -3.828125 L 1.296875 -9.15625 L 2.046875 -9.15625 L 2.046875 -3.875 C 2.046875 -2.789062 2.320312 -1.957031 2.875 -1.375 C 3.425781 -0.789062 4.171875 -0.5 5.109375 -0.5 C 6.097656 -0.5 6.890625 -0.8125 7.484375 -1.4375 C 8.078125 -2.070312 8.375 -3.007812 8.375 -4.25 L 8.375 -9.15625 Z M 9.125 -9.15625 "/></g></g></g><g fill="#373643" fill-opacity="1"><g transform="translate(171.989549, 18.769265)"><g><path d="M 2.140625 -7.265625 C 2.367188 -7.941406 2.769531 -8.457031 3.34375 -8.8125 C 3.914062 -9.164062 4.644531 -9.34375 5.53125 -9.34375 L 5.53125 -8.5625 L 5.28125 -8.5625 C 4.382812 -8.5625 3.632812 -8.300781 3.03125 -7.78125 C 2.4375 -7.269531 2.140625 -6.4375 2.140625 -5.28125 L 2.140625 0 L 1.390625 0 L 1.390625 -9.15625 L 2.140625 -9.15625 Z M 2.140625 -7.265625 "/></g></g></g><g fill="#373643" fill-opacity="1"><g transform="translate(177.2553, 18.769265)"><g><path d="M 5.515625 -9.34375 C 6.609375 -9.34375 7.5 -9.007812 8.1875 -8.34375 C 8.875 -7.675781 9.21875 -6.679688 9.21875 -5.359375 L 9.21875 0 L 8.46875 0 L 8.46875 -5.3125 C 8.46875 -6.40625 8.191406 -7.238281 7.640625 -7.8125 C 7.085938 -8.394531 6.34375 -8.6875 5.40625 -8.6875 C 4.414062 -8.6875 3.625 -8.367188 3.03125 -7.734375 C 2.4375 -7.109375 2.140625 -6.175781 2.140625 -4.9375 L 2.140625 0 L 1.390625 0 L 1.390625 -9.15625 L 2.140625 -9.15625 L 2.140625 -7.21875 C 2.398438 -7.90625 2.832031 -8.429688 3.4375 -8.796875 C 4.039062 -9.160156 4.734375 -9.34375 5.515625 -9.34375 Z M 5.515625 -9.34375 "/></g></g></g><g fill="#373643" fill-opacity="1"><g transform="translate(187.128733, 18.769265)"><g><path d="M 9.640625 -5.203125 C 9.640625 -4.796875 9.628906 -4.488281 9.609375 -4.28125 L 1.6875 -4.28125 C 1.707031 -3.457031 1.882812 -2.765625 2.21875 -2.203125 C 2.5625 -1.640625 3.007812 -1.21875 3.5625 -0.9375 C 4.113281 -0.65625 4.710938 -0.515625 5.359375 -0.515625 C 6.265625 -0.515625 7.019531 -0.738281 7.625 -1.1875 C 8.226562 -1.632812 8.613281 -2.238281 8.78125 -3 L 9.5625 -3 C 9.382812 -2.070312 8.925781 -1.316406 8.1875 -0.734375 C 7.445312 -0.148438 6.503906 0.140625 5.359375 0.140625 C 4.503906 0.140625 3.738281 -0.0507812 3.0625 -0.4375 C 2.394531 -0.820312 1.867188 -1.367188 1.484375 -2.078125 C 1.097656 -2.796875 0.90625 -3.632812 0.90625 -4.59375 C 0.90625 -5.550781 1.09375 -6.382812 1.46875 -7.09375 C 1.851562 -7.800781 2.378906 -8.34375 3.046875 -8.71875 C 3.722656 -9.09375 4.492188 -9.28125 5.359375 -9.28125 C 6.242188 -9.28125 7.007812 -9.09375 7.65625 -8.71875 C 8.300781 -8.34375 8.789062 -7.84375 9.125 -7.21875 C 9.46875 -6.59375 9.640625 -5.921875 9.640625 -5.203125 Z M 8.875 -4.90625 C 8.90625 -5.71875 8.757812 -6.40625 8.4375 -6.96875 C 8.125 -7.53125 7.691406 -7.945312 7.140625 -8.21875 C 6.585938 -8.5 5.988281 -8.640625 5.34375 -8.640625 C 4.707031 -8.640625 4.113281 -8.5 3.5625 -8.21875 C 3.019531 -7.945312 2.578125 -7.53125 2.234375 -6.96875 C 1.890625 -6.40625 1.707031 -5.71875 1.6875 -4.90625 Z M 8.875 -4.90625 "/></g></g></g><g fill="#373643" fill-opacity="1"><g transform="translate(197.03592, 18.769265)"><g><path d="M 8.53125 -9.15625 L 3.203125 4.296875 L 2.4375 4.296875 L 4.140625 0 L 0.28125 -9.15625 L 1.109375 -9.15625 L 4.5625 -0.84375 L 7.765625 -9.15625 Z M 8.53125 -9.15625 "/></g></g></g></g></g></svg>